<svg width="107" height="74" viewBox="0 0 107 74" fill="none" xmlns="http://www.w3.org/2000/svg">
<g opacity="0.3" clip-path="url(#clip0_412_265)">
<path d="M32.3514 47.4202C34.9212 46.3187 36.4092 44.0369 35.6748 42.3237C34.9405 40.6105 32.2619 40.1146 29.6921 41.2161C27.1223 42.3176 25.6344 44.5994 26.3687 46.3126C27.103 48.0258 29.7816 48.5217 32.3514 47.4202Z" fill="#39285E"/>
<path d="M51.4043 44.7604C52.8507 48.1348 53.2639 51.8623 52.5918 55.4716C51.9197 59.0809 50.1925 62.4098 47.6284 65.0374C45.0644 67.665 41.7788 69.4733 38.187 70.2335C34.5953 70.9938 30.8588 70.6719 27.45 69.3086C24.0412 67.9453 21.1132 65.6018 19.0363 62.5744C16.9594 59.547 15.8269 55.9718 15.7819 52.3007C15.737 48.6297 16.7816 45.0277 18.7838 41.9504C20.7859 38.8731 23.6556 36.4586 27.03 35.0122C29.2703 34.0504 31.6783 33.5397 34.1161 33.5092C36.554 33.4787 38.9739 33.929 41.2376 34.8343C43.5013 35.7397 45.5644 37.0823 47.3089 38.7855C49.0533 40.4887 50.445 42.519 51.4043 44.7604ZM35.672 42.3238C34.9407 40.6177 32.264 40.1127 29.6893 41.2163C27.1146 42.3199 25.6346 44.6066 26.3659 46.3128C27.0972 48.0189 29.7739 48.524 32.3486 47.4204C34.9233 46.3168 36.4033 44.03 35.672 42.3238Z" fill="#6F60BA"/>
<path d="M68.0233 44.981C70.5931 43.8795 72.0811 41.5977 71.3467 39.8845C70.6124 38.1713 67.9338 37.6754 65.364 38.7769C62.7942 39.8784 61.3062 42.1602 62.0406 43.8734C62.7749 45.5866 65.4535 46.0825 68.0233 44.981Z" fill="#39285E"/>
<path d="M62.7058 32.5727C66.0802 31.1263 69.8077 30.7131 73.417 31.3852C77.0262 32.0573 80.3552 33.7845 82.9828 36.3486C85.6104 38.9126 87.4186 42.1982 88.1789 45.7899C88.9392 49.3817 88.6173 53.1182 87.254 56.527C85.8907 59.9358 83.5472 62.8638 80.5198 64.9407C77.4924 67.0176 73.9171 68.1501 70.2461 68.1951C66.5751 68.24 62.9731 67.1954 59.8958 65.1932C56.8185 63.1911 54.4039 60.3214 52.9576 56.947C51.9958 54.7067 51.4851 52.2987 51.4546 49.8609C51.4241 47.423 51.8743 45.0031 52.7797 42.7394C53.685 40.4757 55.0277 38.4126 56.7309 36.6681C58.4341 34.9237 60.4644 33.532 62.7058 32.5727ZM71.3478 39.8844C70.6165 38.1783 67.9398 37.6732 65.3651 38.7768C62.7904 39.8804 61.3103 42.1672 62.0416 43.8733C62.7729 45.5794 65.4496 46.0845 68.0243 44.9809C70.599 43.8773 72.0791 41.5905 71.3478 39.8844Z" fill="#7E6DD4"/>
<path d="M38.3347 61.3794C41.7091 59.933 45.4366 59.5197 49.0459 60.1918C52.6551 60.8639 55.9841 62.5912 58.6117 65.1552C61.2393 67.7192 63.0476 71.0049 63.8078 74.5966C64.5681 78.1883 64.2462 81.9248 62.8829 85.3336C61.5196 88.7424 59.1761 91.6704 56.1487 93.7473C53.1213 95.8242 49.546 96.9568 45.875 97.0017C42.204 97.0467 38.602 96.002 35.5247 93.9999C32.4474 91.9977 30.0328 89.128 28.5865 85.7536C27.6247 83.5133 27.114 81.1054 27.0835 78.6675C27.053 76.2297 27.5033 73.8097 28.4086 71.546C29.3139 69.2823 30.6566 67.2192 32.3598 65.4748C34.063 63.7303 36.0933 62.3386 38.3347 61.3794ZM39.4436 81.0999C38.34 78.5252 36.0532 77.0452 34.3471 77.7765C32.641 78.5078 32.1359 81.1845 33.2395 83.7592C34.3431 86.3339 36.6299 87.8139 38.336 87.0826C40.0422 86.3513 40.5472 83.6746 39.4436 81.0999Z" fill="#7E6DD4"/>
<path d="M51.3414 44.6145C51.8772 44.5023 52.1794 44.4279 52.1794 44.4279L52.21 44.3835C52.3367 43.951 52.4931 43.5278 52.6518 43.1054C52.8923 40.5903 52.4027 38.0592 51.2417 35.8151C51.2417 35.8151 44.168 19.3122 26.2535 22.4928C26.447 26.5605 27.2976 30.5701 28.7723 34.366C33.1359 32.9897 37.8542 33.2748 42.0202 35.1665C46.1863 37.0583 49.5061 40.4232 51.3414 44.6145Z" fill="#4E8C00"/>
<path d="M62.7057 32.5728C67.1315 30.6727 72.1241 30.5747 76.6211 32.2997C77.3254 30.8264 77.7129 29.2217 77.7586 27.5893C77.8043 25.9568 77.5071 24.333 76.8863 22.8225C71.5677 10.4144 65.8064 5.53992 65.8064 5.53992C63.5217 14.566 62.1274 23.7943 61.6433 33.0925C61.9938 32.9165 62.3397 32.7297 62.7057 32.5728Z" fill="#63B300"/>
<path d="M65.805 5.54007C47.5697 18.4494 53.5828 36.6498 54.5931 39.3196C56.3652 36.6698 58.7937 34.5244 61.6419 33.0926C62.126 23.7945 63.5204 14.5662 65.805 5.54007Z" fill="#4E8C00"/>
<path d="M68.0233 44.981C70.5931 43.8795 72.0811 41.5977 71.3467 39.8845C70.6124 38.1713 67.9338 37.6754 65.364 38.7769C62.7942 39.8784 61.3062 42.1602 62.0406 43.8734C62.7749 45.5866 65.4535 46.0825 68.0233 44.981Z" fill="#39285E"/>
<path d="M62.7058 32.5727C66.0802 31.1263 69.8077 30.7131 73.417 31.3852C77.0262 32.0573 80.3552 33.7845 82.9828 36.3486C85.6104 38.9126 87.4186 42.1982 88.1789 45.7899C88.9392 49.3817 88.6173 53.1182 87.254 56.527C85.8907 59.9358 83.5472 62.8638 80.5198 64.9407C77.4924 67.0176 73.9171 68.1501 70.2461 68.1951C66.5751 68.24 62.9731 67.1954 59.8958 65.1932C56.8185 63.1911 54.4039 60.3214 52.9576 56.947C51.9958 54.7067 51.4851 52.2987 51.4546 49.8609C51.4241 47.423 51.8743 45.0031 52.7797 42.7394C53.685 40.4757 55.0277 38.4126 56.7309 36.6681C58.4341 34.9237 60.4644 33.532 62.7058 32.5727ZM71.3478 39.8844C70.6165 38.1783 67.9398 37.6732 65.3651 38.7768C62.7904 39.8804 61.3103 42.1672 62.0416 43.8733C62.7729 45.5794 65.4496 46.0845 68.0243 44.9809C70.599 43.8773 72.0791 41.5905 71.3478 39.8844Z" fill="#7E6DD4"/>
<path d="M62.7058 32.5727C59.3314 34.0191 56.4617 36.4336 54.4595 39.511C52.4574 42.5883 51.4127 46.1902 51.4577 49.8613C51.5027 53.5323 52.6352 57.1076 54.7121 60.135C56.789 63.1623 59.717 65.5059 63.1258 66.8692C66.5346 68.2325 70.2711 68.5544 73.8628 67.7941C77.4546 67.0338 80.7402 65.2255 83.3042 62.5979C85.8682 59.9703 87.5955 56.6414 88.2676 53.0321C88.9397 49.4229 88.5264 45.6953 87.0801 42.3209C86.1208 40.0796 84.7291 38.0492 82.9846 36.346C81.2402 34.6429 79.1771 33.3002 76.9134 32.3949C74.6497 31.4895 72.2297 31.0392 69.7919 31.0697C67.354 31.1003 64.9461 31.611 62.7058 32.5727ZM74.0077 58.9401C65.4352 62.6146 56.1188 60.0387 53.1789 53.1801C50.2391 46.3215 54.7981 37.7982 63.3706 34.1237C71.9431 30.4493 81.2596 33.0251 84.1994 39.8837C87.1392 46.7423 82.5802 55.2656 74.0077 58.9401Z" fill="#5F4A9E"/>
<path d="M69.3523 48.0832C75.3485 45.513 78.87 40.3046 77.2177 36.4498C75.5655 32.5951 69.3651 31.5538 63.3689 34.124C57.3726 36.6942 53.8511 41.9026 55.5034 45.7573C57.1557 49.612 63.356 50.6534 69.3523 48.0832Z" fill="#9883FF"/>
<path d="M68.6891 46.532C72.1155 45.0633 74.0002 41.7895 72.8987 39.2196C71.7972 36.6498 68.1266 35.7572 64.7002 37.2259C61.2738 38.6945 59.389 41.9684 60.4906 44.5382C61.5921 47.108 65.2627 48.0007 68.6891 46.532Z" fill="#5F4A9E"/>
<path d="M68.0233 44.981C70.5931 43.8795 72.0811 41.5977 71.3467 39.8845C70.6124 38.1713 67.9338 37.6754 65.364 38.7769C62.7942 39.8784 61.3062 42.1602 62.0406 43.8734C62.7749 45.5866 65.4535 46.0825 68.0233 44.981Z" fill="#39285E"/>
<path d="M66.0288 40.3279C66.886 39.8643 67.8581 39.6558 68.83 39.7273C69.8019 39.7987 70.733 40.1471 71.5132 40.7311C71.5114 40.441 71.455 40.1537 71.3467 39.8845C70.6154 38.1784 67.9387 37.6733 65.364 38.7769C62.7893 39.8805 61.3093 42.1673 62.0406 43.8734C62.1609 44.1375 62.33 44.3764 62.5389 44.5778C62.6539 43.61 63.0437 42.6955 63.6622 41.9423C64.2807 41.1892 65.1019 40.629 66.0288 40.3279Z" fill="#261647"/>
<path d="M79.035 38.4343C78.9303 38.4984 78.8355 38.5774 78.7536 38.6688C78.0574 39.4261 78.0473 40.8075 77.725 41.7516C76.8388 44.3373 75.2006 46.5993 73.0205 48.2479C72.761 48.385 72.5326 48.5744 72.3498 48.8041C72.1671 49.0338 72.0338 49.2989 71.9585 49.5826C71.9609 49.872 72.0579 50.1528 72.2347 50.3819C72.4115 50.6111 72.6584 50.7762 72.9378 50.8519C73.4972 50.9861 74.0811 50.9799 74.6375 50.8339C76.8192 50.5425 78.8807 49.664 80.6019 48.2921C81.3942 47.5604 82.0284 46.6742 82.4652 45.6881C82.902 44.702 83.1322 43.6368 83.1417 42.5584C83.1415 41.87 82.9617 41.1936 82.6202 40.5959C82.2787 39.9982 81.7872 39.4999 81.1943 39.1501C80.5298 38.6749 79.7369 38.0159 79.035 38.4343Z" fill="#9883FF"/>
<path d="M32.3514 47.4202C34.9212 46.3187 36.4092 44.0369 35.6748 42.3237C34.9405 40.6105 32.2619 40.1146 29.6921 41.2161C27.1223 42.3176 25.6344 44.5994 26.3687 46.3126C27.103 48.0258 29.7816 48.5217 32.3514 47.4202Z" fill="#39285E"/>
<path d="M51.4043 44.7604C52.8507 48.1348 53.2639 51.8623 52.5918 55.4716C51.9197 59.0809 50.1925 62.4098 47.6284 65.0374C45.0644 67.665 41.7788 69.4733 38.187 70.2335C34.5953 70.9938 30.8588 70.6719 27.45 69.3086C24.0412 67.9453 21.1132 65.6018 19.0363 62.5744C16.9594 59.547 15.8269 55.9718 15.7819 52.3007C15.737 48.6297 16.7816 45.0277 18.7838 41.9504C20.7859 38.8731 23.6556 36.4586 27.03 35.0122C29.2703 34.0504 31.6783 33.5397 34.1161 33.5092C36.554 33.4787 38.9739 33.929 41.2376 34.8343C43.5013 35.7397 45.5644 37.0823 47.3089 38.7855C49.0533 40.4887 50.445 42.519 51.4043 44.7604ZM35.672 42.3238C34.9407 40.6177 32.264 40.1127 29.6893 41.2163C27.1146 42.3199 25.6346 44.6066 26.3659 46.3128C27.0972 48.0189 29.7739 48.524 32.3486 47.4204C34.9233 46.3168 36.4033 44.03 35.672 42.3238Z" fill="#6F60BA"/>
<path d="M27.03 35.0122C23.6556 36.4586 20.7859 38.8731 18.7838 41.9504C16.7816 45.0277 15.737 48.6297 15.7819 52.3007C15.8269 55.9718 16.9594 59.547 19.0363 62.5744C21.1132 65.6018 24.0412 67.9453 27.45 69.3086C30.8588 70.6719 34.5953 70.9938 38.187 70.2335C41.7788 69.4733 45.0644 67.665 47.6284 65.0374C50.1925 62.4098 51.9197 59.0809 52.5918 55.4716C53.2639 51.8623 52.8507 48.1348 51.4043 44.7604C50.445 42.519 49.0533 40.4887 47.3089 38.7855C45.5644 37.0823 43.5013 35.7397 41.2376 34.8343C38.9739 33.929 36.554 33.4787 34.1161 33.5092C31.6783 33.5397 29.2703 34.0504 27.03 35.0122ZM38.3319 61.3796C29.7594 65.054 20.443 62.4782 17.5032 55.6196C14.5633 48.761 19.1223 40.2377 27.6948 36.5632C36.2673 32.8887 45.5838 35.4646 48.5236 42.3232C51.4634 49.1818 46.9044 57.7051 38.3319 61.3796Z" fill="#483584"/>
<path d="M33.6804 50.5223C39.6766 47.9521 43.1981 42.7436 41.5458 38.8889C39.8936 35.0342 33.6932 33.9929 27.697 36.5631C21.7008 39.1332 18.1793 44.3417 19.8315 48.1964C21.4838 52.0511 27.6841 53.0924 33.6804 50.5223Z" fill="#9883FF"/>
<path d="M33.0133 48.9713C36.4397 47.5026 38.3245 44.2288 37.223 41.659C36.1214 39.0892 32.4508 38.1965 29.0244 39.6652C25.598 41.1339 23.7133 44.4077 24.8148 46.9775C25.9163 49.5473 29.5869 50.44 33.0133 48.9713Z" fill="#5F4A9E"/>
<path d="M32.3514 47.4202C34.9212 46.3187 36.4092 44.0369 35.6748 42.3237C34.9405 40.6105 32.2619 40.1146 29.6921 41.2161C27.1223 42.3176 25.6344 44.5994 26.3687 46.3126C27.103 48.0258 29.7816 48.5217 32.3514 47.4202Z" fill="#39285E"/>
<path d="M30.3569 42.7671C31.2141 42.3035 32.1862 42.095 33.1581 42.1665C34.13 42.2379 35.0611 42.5863 35.8413 43.1703C35.8395 42.8802 35.7831 42.5929 35.6748 42.3237C34.9435 40.6176 32.2668 40.1125 29.6921 41.2161C27.1174 42.3197 25.6374 44.6065 26.3687 46.3126C26.489 46.5767 26.6581 46.8156 26.8671 47.017C26.9821 46.0493 27.3719 45.1347 27.9903 44.3816C28.6088 43.6284 29.4301 43.0682 30.3569 42.7671Z" fill="#261647"/>
<path d="M43.3631 40.8735C43.2584 40.9376 43.1637 41.0166 43.0817 41.108C42.3856 41.8654 42.3754 43.2467 42.0531 44.1909C41.1669 46.7765 39.5288 49.0386 37.3486 50.6871C37.0891 50.8243 36.8607 51.0136 36.678 51.2433C36.4952 51.473 36.362 51.7381 36.2867 52.0218C36.289 52.3112 36.386 52.592 36.5628 52.8212C36.7396 53.0503 36.9865 53.2154 37.2659 53.2912C37.8253 53.4253 38.4092 53.4191 38.9656 53.2731C41.1473 52.9817 43.2088 52.1032 44.93 50.7313C45.7223 49.9996 46.3565 49.1134 46.7933 48.1273C47.2301 47.1412 47.4604 46.076 47.4699 44.9976C47.4696 44.3092 47.2898 43.6328 46.9483 43.0351C46.6068 42.4374 46.1154 41.9391 45.5224 41.5893C44.8579 41.1141 44.0651 40.4551 43.3631 40.8735Z" fill="#7E6DD4"/>
<path d="M29.1607 69.9007C31.1339 66.08 34.3773 63.0666 38.3326 61.3794C35.2711 62.7171 31.9216 63.2605 28.5942 62.9593C27.3623 64.6612 26.4279 66.5597 25.8308 68.574C26.8958 69.1217 28.0109 69.5659 29.1607 69.9007Z" fill="#39285E"/>
<path d="M48.3671 42.0105C47.9758 42.5935 47.6177 43.1982 47.2946 43.8216C47.4167 44.2006 47.4774 44.5967 47.4743 44.9948C47.4403 46.9395 46.6928 48.8039 45.374 50.2335C45.1861 51.9255 45.2332 53.6353 45.5139 55.3143C42.2704 54.9842 38.9972 55.517 36.0258 56.8587C33.0544 58.2003 30.4902 60.3033 28.5929 62.9546C31.7744 63.2196 34.9737 62.7349 37.9339 61.5394C40.8942 60.3438 43.5328 58.4709 45.638 56.0708C45.8255 55.8528 46.0167 55.6349 46.1908 55.4116C47.7239 53.6431 48.7502 51.493 49.1611 49.1888C49.572 46.8847 49.3522 44.5124 48.5249 42.323C48.4784 42.2144 48.4161 42.1162 48.3671 42.0105Z" fill="#483584"/>
<path d="M49.1556 40.9078C48.8776 41.2657 48.6177 41.6359 48.3689 42.0106C48.4147 42.1177 48.4801 42.2145 48.5266 42.3231C49.3551 44.5129 49.5757 46.8861 49.1651 49.1911C48.7546 51.4961 47.7281 53.6472 46.1945 55.4163C46.0204 55.6397 45.8323 55.8562 45.6417 56.0755C43.6424 58.3775 41.1431 60.1917 38.335 61.3794C42.2901 59.7027 46.7005 59.4323 50.8309 60.6132C51.3791 59.5503 51.8242 58.4373 52.1602 57.2895C52.3049 56.796 52.4199 56.2932 52.5229 55.7882C51.3991 52.6245 51.1599 49.2141 51.831 45.9244C51.6943 45.5369 51.5653 45.146 51.4011 44.7629C50.81 43.3925 50.0561 42.0981 49.1556 40.9078Z" fill="#39285E"/>
<path d="M47.4678 44.9975C47.4708 44.5993 47.4101 44.2032 47.288 43.8243C46.2658 45.828 45.6151 48.0004 45.3675 50.2362C46.6862 48.8066 47.4337 46.9422 47.4678 44.9975Z" fill="#5F4A9E"/>
<path d="M38.3347 61.3794C41.7091 59.933 45.4366 59.5197 49.0459 60.1918C52.6551 60.8639 55.9841 62.5912 58.6117 65.1552C61.2393 67.7192 63.0476 71.0049 63.8078 74.5966C64.5681 78.1883 64.2462 81.9248 62.8829 85.3336C61.5196 88.7424 59.1761 91.6704 56.1487 93.7473C53.1213 95.8242 49.546 96.9568 45.875 97.0017C42.204 97.0467 38.602 96.002 35.5247 93.9999C32.4474 91.9977 30.0328 89.128 28.5865 85.7536C27.6247 83.5133 27.114 81.1054 27.0835 78.6675C27.053 76.2297 27.5033 73.8097 28.4086 71.546C29.3139 69.2823 30.6566 67.2192 32.3598 65.4748C34.063 63.7303 36.0933 62.3386 38.3347 61.3794ZM39.4436 81.0999C38.34 78.5252 36.0532 77.0452 34.3471 77.7765C32.641 78.5078 32.1359 81.1845 33.2395 83.7592C34.3431 86.3339 36.6299 87.8139 38.336 87.0826C40.0422 86.3513 40.5472 83.6746 39.4436 81.0999Z" fill="#7E6DD4"/>
<path d="M28.5865 85.7536C30.0328 89.128 32.4474 91.9977 35.5247 93.9999C38.602 96.002 42.204 97.0467 45.875 97.0017C49.546 96.9568 53.1213 95.8242 56.1487 93.7473C59.1761 91.6704 61.5196 88.7424 62.8829 85.3336C64.2462 81.9248 64.5681 78.1883 63.8078 74.5966C63.0476 71.0049 61.2393 67.7192 58.6117 65.1552C55.9841 62.5912 52.6551 60.8639 49.0459 60.1918C45.4366 59.5197 41.7091 59.933 38.3347 61.3794C36.0933 62.3386 34.063 63.7303 32.3598 65.4748C30.6566 67.2192 29.3139 69.2823 28.4086 71.546C27.5033 73.8097 27.053 76.2297 27.0835 78.6675C27.114 81.1054 27.6247 83.5133 28.5865 85.7536ZM54.9538 74.4517C58.6283 83.0242 56.0525 92.3406 49.1939 95.2805C42.3352 98.2203 33.8119 93.6613 30.1375 85.0888C26.463 76.5163 29.0388 67.1999 35.8975 64.26C42.7561 61.3202 51.2794 65.8792 54.9538 74.4517Z" fill="#5F4A9E"/>
<path d="M41.7676 92.9543C45.6223 91.302 46.6636 85.1017 44.0934 79.1055C41.5232 73.1092 36.3148 69.5877 32.4601 71.24C28.6053 72.8923 27.564 79.0926 30.1342 85.0888C32.7044 91.0851 37.9128 94.6066 41.7676 92.9543Z" fill="#9883FF"/>
<path d="M35.6347 68.7912C35.699 68.8957 35.778 68.9905 35.8692 69.0726C36.6281 69.7681 38.0172 69.7749 38.953 70.099C41.5382 70.9867 43.7997 72.6255 45.4484 74.8057C45.5856 75.0653 45.7752 75.2937 46.0052 75.4763C46.2352 75.659 46.5006 75.792 46.7845 75.867C47.0737 75.8646 47.3542 75.7677 47.5831 75.591C47.812 75.4143 47.9768 75.1675 48.0524 74.8884C48.1865 74.329 48.1803 73.7451 48.0343 73.1887C47.743 71.0064 46.8642 68.9443 45.4918 67.2228C44.7604 66.4291 43.8741 65.7939 42.8876 65.3563C41.9011 64.9186 40.8353 64.6878 39.7561 64.6782C39.0677 64.6785 38.3913 64.8583 37.7936 65.1998C37.196 65.5413 36.6976 66.0327 36.3479 66.6256C35.883 67.2931 35.2234 68.0844 35.6347 68.7912Z" fill="#9883FF"/>
<path d="M51.3414 44.6145C51.8772 44.5023 52.1794 44.4279 52.1794 44.4279L52.21 44.3835C52.3367 43.951 52.4931 43.5278 52.6518 43.1054C52.8923 40.5903 52.4027 38.0592 51.2417 35.8151C51.2417 35.8151 44.168 19.3122 26.2535 22.4928C26.447 26.5605 27.2976 30.5701 28.7723 34.366C33.1359 32.9897 37.8542 33.2748 42.0202 35.1665C46.1863 37.0583 49.5061 40.4232 51.3414 44.6145Z" fill="#4E8C00"/>
<path d="M62.7057 32.5728C67.1315 30.6727 72.1241 30.5747 76.6211 32.2997C77.3254 30.8264 77.7129 29.2217 77.7586 27.5893C77.8043 25.9568 77.5071 24.333 76.8863 22.8225C71.5677 10.4144 65.8064 5.53992 65.8064 5.53992C63.5217 14.566 62.1274 23.7943 61.6433 33.0925C61.9938 32.9165 62.3397 32.7297 62.7057 32.5728Z" fill="#63B300"/>
<path d="M65.805 5.54007C47.5697 18.4494 53.5828 36.6498 54.5931 39.3196C56.3652 36.6698 58.7937 34.5244 61.6419 33.0926C62.126 23.7945 63.5204 14.5662 65.805 5.54007Z" fill="#4E8C00"/>
<path d="M62.2457 25.6096C61.983 27.9952 61.7716 30.5001 61.6467 33.1002C61.9973 32.9242 62.3431 32.7374 62.7092 32.5805C67.135 30.6804 72.1276 30.5824 76.6246 32.3075C77.2136 30.9563 77.5833 29.5198 77.7199 28.0522C75.4751 26.5406 72.9266 25.5386 70.2534 25.1166C67.5802 24.6947 64.847 24.8629 62.2457 25.6096Z" fill="#4E8C00"/>
<path d="M61.6427 33.0924C61.7753 30.489 61.9881 27.9872 62.2417 25.6019C61.4946 25.8119 60.7613 26.068 60.0459 26.3686C57.2803 27.5524 54.8458 29.3938 52.9541 31.7328C53.1622 34.3231 53.7136 36.8743 54.5939 39.3194C56.366 36.6696 58.7946 34.5242 61.6427 33.0924ZM26.9943 28.073C27.456 30.2056 28.0503 32.3073 28.7737 34.366C33.1372 32.9896 37.8555 33.2747 42.0216 35.1665C46.1876 37.0583 49.5074 40.4232 51.3427 44.6144C51.8785 44.5023 52.1807 44.4278 52.1807 44.4278L52.2113 44.3835C52.338 43.9509 52.4945 43.5277 52.6531 43.1054C52.8936 40.5902 52.404 38.0591 51.243 35.815C50.359 33.9431 49.2435 32.1896 47.9226 30.5957C41.5436 27.0541 34.0321 26.1487 26.9943 28.073Z" fill="#3F7000"/>
<path d="M78.9429 37.8058C79.514 36.378 78.3656 34.5761 76.3779 33.7812C74.3902 32.9862 72.3159 33.4992 71.7449 34.927C71.1739 36.3549 72.3223 38.1568 74.31 38.9517C76.2977 39.7467 78.3719 39.2336 78.9429 37.8058Z" fill="#F6FAFD"/>
<path d="M42.1461 71.9219C42.7171 70.4941 41.5687 68.6922 39.581 67.8972C37.5933 67.1023 35.5191 67.6153 34.948 69.0431C34.377 70.4709 35.5254 72.2729 37.5131 73.0678C39.5008 73.8628 41.575 73.3497 42.1461 71.9219Z" fill="#F6FAFD"/>
<path d="M62.7594 55.751C63.3304 54.3232 62.182 52.5213 60.1943 51.7263C58.2066 50.9314 56.1323 51.4444 55.5613 52.8722C54.9903 54.3001 56.1387 56.102 58.1264 56.8969C60.1141 57.6919 62.1883 57.1788 62.7594 55.751Z" fill="#C4B0FF"/>
<path d="M79.8019 43.2907C80.0875 42.5767 79.5136 41.6759 78.5202 41.2786C77.5268 40.8813 76.49 41.138 76.2045 41.8519C75.919 42.5658 76.4928 43.4666 77.4862 43.8639C78.4796 44.2612 79.5164 44.0046 79.8019 43.2907Z" fill="#F6FAFD"/>
<path d="M42.7902 42.616C43.0757 41.9021 42.5019 41.0013 41.5085 40.6039C40.5151 40.2066 39.4783 40.4633 39.1928 41.1772C38.9072 41.8911 39.4811 42.7919 40.4745 43.1892C41.4679 43.5865 42.5047 43.3299 42.7902 42.616Z" fill="#F6FAFD"/>
<path d="M39.8388 38.5468C39.9817 38.1894 39.6949 37.7386 39.1982 37.54C38.7015 37.3413 38.183 37.47 38.0401 37.8274C37.8971 38.1848 38.1839 38.6355 38.6806 38.8342C39.1773 39.0328 39.6958 38.9042 39.8388 38.5468Z" fill="#F6FAFD"/>
</g>
<defs>
<clipPath id="clip0_412_265">
<rect width="81" height="81" fill="white" transform="translate(0 31.9114) rotate(-23.2016)"/>
</clipPath>
</defs>
</svg>
