<svg width="72" height="110" viewBox="0 0 72 110" fill="none" xmlns="http://www.w3.org/2000/svg">
<g clip-path="url(#clip0_412_239)">
<g opacity="0.5">
<mask id="mask0_412_239" style="mask-type:luminance" maskUnits="userSpaceOnUse" x="0" y="0" width="110" height="110">
<path d="M0.0150831 37.1454L71.9995 0.000279597L109.145 71.9847L37.1602 109.13L0.0150831 37.1454Z" fill="white"/>
</mask>
<g mask="url(#mask0_412_239)">
<path d="M86.3949 46.4971C94.4901 62.1849 88.3352 81.4647 72.6473 89.5599C56.9597 97.655 37.6798 91.4999 29.5846 75.8121C21.4895 60.1244 27.6446 40.8445 43.3323 32.7495C59.0201 24.6543 78.2998 30.8094 86.3949 46.4971Z" fill="#FE9738"/>
<path d="M86.3971 46.4971C94.4921 62.1846 88.336 81.4642 72.6484 89.5592C69.6369 91.1132 66.4934 92.1424 63.3218 92.6788C65.4765 92.0867 67.5634 91.271 69.5487 90.2452C85.2362 82.1502 91.3916 62.8693 83.2966 47.1817C76.7556 34.5059 62.9102 28.0541 49.5605 30.3157C63.8154 26.4031 79.3475 32.8355 86.3971 46.4971Z" fill="#FE860A"/>
<path d="M54.3045 28.8854C55.1355 27.6845 55.7389 26.3158 56.1188 24.9106C56.7122 22.7153 56.6654 20.3883 55.8486 18.2644C55.8043 18.1493 55.7276 18.0496 55.6278 17.9773C55.5279 17.905 55.4092 17.8633 55.286 17.8573C53.044 17.7495 50.8473 18.4141 48.9656 19.6359C47.4359 20.6293 46.0027 21.9542 45.1335 23.5827C43.749 26.1764 43.1458 29.2894 43.9366 32.1788C44.0619 32.6365 44.2955 33.7824 44.9373 33.7968C45.5741 33.8106 46.2107 33.7645 46.8388 33.6591C49.7823 33.1655 52.5984 31.3504 54.3045 28.8854Z" fill="#00C27A"/>
<path d="M55.8442 18.2642C56.6609 20.3886 56.7075 22.7146 56.1134 24.9099C55.7337 26.3166 55.1312 27.6851 54.2996 28.885C52.5931 31.3501 49.7773 33.1663 46.8344 33.6592C46.2061 33.7644 45.5694 33.8105 44.9326 33.7969C44.8104 33.7941 44.6916 33.7559 44.5907 33.687C44.4897 33.618 44.4109 33.5213 44.3639 33.4085C44.288 33.2269 44.2084 33.0383 44.1922 32.9933C44.1849 32.9719 44.1769 32.9529 44.171 32.9312C47.012 32.3749 49.7064 30.5963 51.3579 28.2079C52.1897 27.0078 52.792 25.6395 53.1725 24.2343C53.7281 22.1815 53.7232 20.0121 53.0515 18.0032C53.7869 17.8705 54.535 17.8214 55.2814 17.8568C55.5321 17.8698 55.7535 18.0298 55.8442 18.2642Z" fill="#08B865"/>
<path d="M42.3108 36.9603C40.6546 34.6476 36.6715 28.132 34.988 23.7481C34.2298 21.7742 35.4472 19.5975 37.5291 19.228L37.6186 19.2119C39.2835 18.9121 40.9081 19.9056 41.4112 21.5208C42.2993 24.3711 44.9229 30.9215 46.6346 34.3427C47.2575 35.5875 46.7723 37.1009 45.5353 37.7392C44.4161 38.3167 43.044 37.9845 42.3108 36.9603Z" fill="#D77F4A"/>
<path d="M41.4131 21.5202C42.3021 24.3711 44.9249 30.9203 46.6371 34.3416C47.26 35.587 46.7747 37.0996 45.5375 37.7381C45.0173 38.0065 44.4409 38.0794 43.901 37.9754C44.0596 37.6289 44.1383 37.2512 44.1313 36.8703C44.1242 36.4893 44.0316 36.1148 43.8604 35.7744C42.1482 32.3531 39.5253 25.8039 38.6364 22.9531C38.1885 21.5123 36.8476 20.5663 35.3832 20.5922C35.8684 19.9002 36.6161 19.3899 37.5312 19.2273C37.5609 19.2228 37.591 19.216 37.6208 19.2113C39.2854 18.9115 40.9107 19.9048 41.4131 21.5202Z" fill="#C86D36"/>
</g>
</g>
</g>
<defs>
<clipPath id="clip0_412_239">
<rect width="81.0034" height="81.0034" fill="white" transform="translate(0.0195312 37.1451) rotate(-27.2944)"/>
</clipPath>
</defs>
</svg>
