<svg width="115" height="80" viewBox="0 0 115 80" fill="none" xmlns="http://www.w3.org/2000/svg">
<g opacity="0.5" clip-path="url(#clip0_412_256)">
<path d="M78.2914 48.3469C71.6145 55.4471 57.77 60.9175 47.1467 61.0281C42.4324 61.0804 38.3532 60.0748 35.8146 57.6875C34.2101 56.1787 32.8521 54.4161 31.8663 52.7057C30.5192 50.363 28.5083 48.472 26.0874 47.2712C24.3198 46.3924 22.4772 45.1452 20.8726 43.6363C18.2131 41.1353 16.9629 36.8503 16.8147 31.847C16.4982 21.32 21.0545 7.61393 27.5881 0.666145C37.2278 -9.58468 49.1839 -10.0114 56.3557 -6.08405C59.7913 -4.20281 62.5623 -0.727676 64.5173 2.37969C66.5301 5.58389 69.2028 8.32225 72.3572 10.4122C72.9927 10.8327 73.6455 11.2264 74.3139 11.5923C77.5355 13.353 81.1727 15.904 83.2627 19.2189C87.6232 26.1365 87.9311 38.0961 78.2914 48.3469Z" fill="#F94848"/>
<path d="M47.1469 61.0273C39.1576 55.7955 34.1962 50.4979 31.1256 45.7961C26.1115 38.1185 26.4312 28.1005 31.8624 20.7122C45.4648 2.2078 60.8638 7.57733 60.8638 7.57733C62.6854 12.0135 66.9875 14.605 66.9875 14.605C66.8501 10.178 72.3573 10.4125 72.3573 10.4125C69.2029 8.32248 66.5302 5.58413 64.5174 2.37992C62.5623 -0.727556 59.7914 -4.20258 56.3559 -6.08382C49.1837 -10.0113 37.2277 -9.58444 27.588 0.66638C17.9496 10.9158 12.6149 35.871 20.8725 43.6363C22.477 45.1451 24.3197 46.3924 26.0874 47.2714C28.5083 48.4721 30.5192 50.3631 31.8663 52.7058C32.8521 54.4162 34.21 56.1787 35.8146 57.6877C38.3531 60.0748 42.4322 61.0804 47.1467 61.0282C47.1467 61.0276 47.1467 61.0282 47.1469 61.0273Z" fill="#E23D3D"/>
<path d="M111.071 18.4666C111.071 18.4666 100.315 27.0525 90.0993 22.8897C80.3334 18.9106 80.9659 5.43432 77.792 3.55758C77.6531 3.47165 77.5007 3.40995 77.3411 3.37512C77.3356 3.3725 77.3328 3.37269 77.3328 3.37269L77.3395 3.36835C77.6794 3.18376 88.6058 -2.67538 96.5155 3.70555C104.55 10.1874 105.417 17.4417 111.071 18.4666Z" fill="#C7F492"/>
<path d="M111.072 18.4666C111.072 18.4666 101.294 19.7349 94.8873 13.71C89.2536 8.41214 79.9551 4.43805 77.792 3.55745C77.5329 3.45069 77.3777 3.39044 77.3411 3.375C77.3356 3.37237 77.3328 3.37257 77.3328 3.37257L77.3395 3.36822C77.6794 3.18363 88.6058 -2.6755 96.5155 3.70543C104.55 10.1874 105.417 17.4417 111.072 18.4666Z" fill="#A3E261"/>
<path d="M77.7544 39.0601C80.1229 35.9806 80.4276 32.2418 78.435 30.7093C76.4423 29.1767 72.907 30.4308 70.5385 33.5103C68.17 36.5898 67.8653 40.3286 69.858 41.8611C71.8506 43.3937 75.386 42.1396 77.7544 39.0601Z" fill="#FC8181"/>
<path d="M71.105 15.8293C70.0084 16.9954 67.2644 16.2445 64.6267 14.1797C64.2584 13.8925 63.8934 13.5788 63.5346 13.2414C63.1602 12.8893 62.8118 12.5295 62.4909 12.166C60.2989 9.67276 59.3984 7.0044 60.4883 5.84546L71.105 15.8293Z" fill="#E23D3D"/>
<path d="M79.1023 4.80058L69.6468 7.05292C68.8113 8.52615 67.8209 10.0844 66.6579 11.6493C66.0142 12.5196 65.3358 13.3637 64.6245 14.1797C64.2562 13.8924 63.8912 13.5787 63.5324 13.2413C63.158 12.8892 62.8096 12.5295 62.4887 12.1659C63.2178 11.3278 63.8871 10.4763 64.5067 9.62628C69.0079 3.44189 70.7042 -2.63563 70.7214 -2.70521C70.9351 -3.48604 71.741 -3.94628 72.5217 -3.73243C73.3039 -3.52009 73.7642 -2.71431 73.5503 -1.93348C73.5005 -1.75489 72.8751 0.481889 71.4174 3.61822L78.4243 1.9499C79.2107 1.76122 80.0014 2.24985 80.1873 3.03641C80.376 3.82278 79.8902 4.61331 79.1023 4.80058Z" fill="#B25719"/>
</g>
<defs>
<clipPath id="clip0_412_256">
<rect width="81" height="81" fill="white" transform="translate(55.5703 -34.9219) rotate(43.2402)"/>
</clipPath>
</defs>
</svg>
